<svg xmlns="http://www.w3.org/2000/svg" xmlns:xlink="http://www.w3.org/1999/xlink" version="1.1" x="0px" y="0px" viewBox="0 0 100 125" enable-background="new 0 0 100 100" xml:space="preserve"><g><polygon points="78.725,64.066 74.969,63.893 87.764,85.213 78.219,85.053 73.867,93.553 62.008,73.791 60.322,77.07 74.084,100    80.117,88.217 93.352,88.438  "/></g><polygon points="26.133,93.553 21.782,85.053 12.236,85.213 24.997,63.951 21.24,64.125 6.649,88.438 19.884,88.217 25.916,100   40.344,75.959 38.66,72.68 "/><path d="M42.536,4.491l6.392,4.098l1.69,1.083l1.689-1.083l6.393-4.098l3.486,6.745l0.922,1.783l2.004-0.093l7.586-0.353  l-0.354,7.585l-0.093,2.004l1.783,0.922l6.744,3.486l-4.099,6.392l-1.082,1.69l1.083,1.69l4.098,6.392l-6.744,3.486l-1.783,0.922  l0.093,2.005l0.354,7.584l-7.586-0.352l-2.004-0.094l-0.922,1.783l-3.486,6.744l-6.393-4.098l-1.689-1.082l-1.69,1.082l-6.392,4.098  l-3.487-6.744l-0.922-1.783l-2.004,0.094l-7.585,0.352l0.353-7.584l0.093-2.005L27.2,46.221l-6.744-3.486l4.097-6.392l1.083-1.69  l-1.083-1.69l-4.097-6.392l6.744-3.486l1.783-0.922l-0.093-2.004l-0.353-7.585l7.585,0.353l2.004,0.093l0.922-1.783L42.536,4.491   M59.902,0l-9.285,5.953L41.332,0l-5.065,9.797L25.25,9.286l0.512,11.017l-9.797,5.065l5.953,9.285l-5.953,9.285l9.797,5.064  L25.25,60.02l11.018-0.512l5.065,9.797l9.285-5.951l9.285,5.951l5.064-9.797l11.018,0.512l-0.512-11.017l9.797-5.064l-5.953-9.285  l5.953-9.285l-9.797-5.065l0.512-11.017L64.967,9.798L59.902,0L59.902,0z"/><path d="M42.536,4.491l6.392,4.098l1.69,1.083l1.689-1.083l6.393-4.098l3.486,6.745l0.922,1.783l2.004-0.093l7.586-0.353  l-0.354,7.585l-0.093,2.004l1.783,0.922l6.744,3.486l-4.099,6.392l-1.082,1.69l1.083,1.689l4.098,6.392l-6.744,3.487l-1.783,0.921  l0.093,2.005l0.354,7.584l-7.586-0.352l-2.004-0.094l-0.922,1.783l-3.486,6.744l-6.393-4.098l-1.689-1.082l-1.69,1.082l-6.392,4.098  l-3.487-6.744l-0.922-1.783l-2.004,0.094l-7.585,0.352l0.353-7.584l0.093-2.005L27.2,46.222l-6.744-3.487l4.097-6.392l1.083-1.689  l-1.083-1.69l-4.097-6.392l6.744-3.486l1.783-0.922l-0.093-2.004l-0.353-7.585l7.585,0.353l2.004,0.093l0.922-1.783L42.536,4.491   M59.902,0l-9.285,5.953L41.332,0l-5.065,9.797L25.25,9.286l0.512,11.017l-9.797,5.065l5.953,9.286l-5.953,9.285l9.797,5.064  L25.25,60.02l11.018-0.512l5.065,9.797l9.285-5.951l9.285,5.951l5.064-9.797l11.018,0.512l-0.512-11.017l9.797-5.064l-5.953-9.285  l5.953-9.286l-9.797-5.065l0.512-11.017L64.967,9.798L59.902,0L59.902,0z"/><path d="M51.07,55.164c-11.419,0-20.709-9.289-20.709-20.708s9.29-20.708,20.709-20.708c11.418,0,20.707,9.29,20.707,20.708  S62.488,55.164,51.07,55.164z M51.07,16.88c-9.693,0-17.578,7.885-17.578,17.577s7.885,17.577,17.578,17.577  c9.691,0,17.576-7.885,17.576-17.577S60.762,16.88,51.07,16.88z"/><path d="M43.429,45.87l1.526-8.528l-6.246-6.003l8.582-1.185l3.779-7.795l3.778,7.795l8.582,1.185l-6.246,6.003l1.525,8.527  l-7.64-4.085L43.429,45.87z M51.069,38.233l3.42,1.829l-0.683-3.818l2.796-2.688l-3.842-0.53l-1.691-3.49l-1.692,3.49l-3.841,0.53  l2.796,2.688l-0.683,3.817L51.069,38.233z"/><text x="0" y="115" fill="#000000" font-size="5px" font-weight="bold" font-family="'Helvetica Neue', Helvetica, Arial-Unicode, Arial, Sans-serif">Created by Stefan Parnarov</text><text x="0" y="120" fill="#000000" font-size="5px" font-weight="bold" font-family="'Helvetica Neue', Helvetica, Arial-Unicode, Arial, Sans-serif">from the Noun Project</text></svg>