<svg xmlns="http://www.w3.org/2000/svg" xmlns:xlink="http://www.w3.org/1999/xlink" version="1.1" x="0px" y="0px" viewBox="0 0 100 125" enable-background="new 0 0 100 100" xml:space="preserve"><g><path d="M76.407,44.456c-0.779,0-1.537,0.077-2.286,0.184l-0.181-0.433l-0.532-1.27l-0.713-1.703l-2.683-6.412l-0.389-0.931   l-0.064-0.153l-0.417-0.997l-0.073-0.174l-0.831-1.987h2.034c2.371,0,4.3-1.929,4.3-4.3s-1.929-4.3-4.3-4.3h-8.307H61.76h-0.255   l-0.064,0.014c-0.283,0.021-0.565,0.07-0.839,0.147c-0.103,0.023-0.286,0.068-0.497,0.156c-0.604,0.253-1.136,0.643-1.58,1.16   c-0.244,0.277-0.461,0.605-0.632,0.957c-0.288,0.595-0.433,1.223-0.433,1.867c0,0.648,0.148,1.278,0.439,1.874l0.275,0.658   l0.076,0.181l-0.153,0.123L43.625,40.679l-2.118-5.066h1.938c2.371,0,4.3-1.929,4.3-4.3c0-2.371-1.929-4.3-4.3-4.3H30.739   c-2.371,0-4.3,1.929-4.3,4.3c0,2.371,1.929,4.3,4.3,4.3h1.446l4.05,9.689l0.325,0.779l0.076,0.182l-0.154,0.123l-0.873,0.698   l-0.487,0.389l-0.942,0.753c-1.084-0.907-2.333-1.672-3.681-2.274c-0.211-0.096-0.429-0.176-0.644-0.264   c-0.188-0.075-0.371-0.158-0.562-0.226c-1.813-0.649-3.759-1.006-5.7-1.006c-9.268,0-16.782,7.513-16.782,16.782   c0,9.268,7.513,16.782,16.782,16.782c7.784,0,14.303-5.311,16.199-12.499h1.659h0.189h0.796h1.052h0.199h0.323h1.093l1.448,3.431   c0.13,0.31,0.309,0.608,0.544,0.906c0.051,0.065,0.104,0.129,0.161,0.193c0.235,0.261,0.48,0.475,0.749,0.653l0.106,0.07   l0.077,0.039c0.222,0.13,0.469,0.242,0.73,0.33c0.081,0.028,0.165,0.054,0.252,0.077c0.245,0.065,0.479,0.105,0.712,0.124   l0.059,0.013l0.234,0.002h0.151l0.008-0.001h5.462c2.168,0,3.931-1.763,3.931-3.931s-1.764-3.931-3.931-3.931h-3.013l-0.715-1.694   l0.201-0.322l0.102-0.164l0.171-0.274l0.349-0.559l0.087-0.139l6.159-9.851l0.177-0.284l4.681-7.486l0.768,1.834l0.714,1.706   l0.527,1.261l0.186,0.445c-3.979,3.068-6.566,7.853-6.566,13.267c0,9.268,7.513,16.782,16.782,16.782   c9.268,0,16.782-7.513,16.782-16.782C93.189,51.969,85.676,44.456,76.407,44.456z M23.593,69.651c-4.639,0-8.413-3.774-8.413-8.413   c0-4.639,3.774-8.413,8.413-8.413c1.293,0,2.556,0.315,3.714,0.892l-5.186,4.143c-1.425,1.139-1.977,3.06-1.374,4.781   c0.604,1.723,2.235,2.879,4.059,2.879h5.993C29.296,68.033,26.557,69.651,23.593,69.651z M55.796,65.522   c1.053,0,1.906,0.853,1.906,1.906c0,1.053-0.853,1.906-1.906,1.906h-5.609c-0.004,0-0.008,0.001-0.012,0.001   c-0.008,0-0.016-0.003-0.024-0.004c-0.16-0.002-0.313-0.028-0.461-0.068c-0.042-0.011-0.082-0.024-0.123-0.038   c-0.138-0.047-0.269-0.106-0.391-0.181c-0.017-0.01-0.035-0.017-0.052-0.028c-0.135-0.09-0.254-0.199-0.362-0.319   c-0.027-0.03-0.052-0.062-0.078-0.094c-0.106-0.134-0.2-0.278-0.268-0.439l-1.115-2.642c0.152,0.005,0.889,0.022,1.34-0.208   c1.135-0.581,1.674-1.016,2.072-1.497c0.001-0.002,0.003-0.004,0.004-0.006l0.722,1.712H55.796z M65.324,39.726l-0.386-0.924   l-0.067-0.16l-0.387-0.924l-0.066-0.159l-0.623,0.996l-0.623,0.996L52.472,56.662l-0.001,0.001l-1.512,2.418l-0.088,0.14   l-0.349,0.558l-0.172,0.274l-0.103,0.164l-0.623,0.996l-0.01,0.017l-0.215,0.317l-0.27,0.411l-0.012-0.007   c-0.459,0.684-1.233,1.135-2.114,1.153l0.002,0.024h-3.001l0.004,0.009h-0.323h-1.251h-0.985h-4.845h-4.75h-7.05   c-0.815,0-1.54-0.515-1.81-1.284c-0.269-0.769-0.023-1.624,0.613-2.132l5.866-4.687l3.341-2.669l3.794-3.031l1.36-1.087   l0.779-0.622l0.218-0.174l0.561-0.449l-0.385-0.92l-0.384-0.92L33.772,33.23h-3.033c-1.059,0-1.918-0.859-1.918-1.918   c0-1.059,0.859-1.918,1.918-1.918h12.706c1.059,0,1.918,0.859,1.918,1.918c0,1.059-0.859,1.918-1.918,1.918h-5.516l3.946,9.441   l0.385,0.92l0.385,0.92l0.779-0.623l0.779-0.622l15.381-12.289l0.779-0.623l0.779-0.622l-0.385-0.92l-0.385-0.92l-0.307-0.733   c-0.138-0.265-0.223-0.561-0.223-0.879c0-0.299,0.074-0.578,0.196-0.83c0.077-0.16,0.176-0.307,0.291-0.439   c0.001-0.001,0.002-0.002,0.003-0.003c0.185-0.216,0.415-0.398,0.695-0.515c0.059-0.025,0.12-0.031,0.18-0.049   c0.005-0.001,0.01-0.003,0.015-0.004c0.165-0.049,0.34-0.074,0.52-0.076c0.006,0,0.011-0.002,0.017-0.002h0.204h8.307   c1.059,0,1.918,0.859,1.918,1.918c0,1.059-0.859,1.918-1.918,1.918h-3.749h-1.283h-0.581l0.38,0.907l0.414,0.988l0.489,1.168   l0.931,2.226l0.072,0.173l0.417,0.997l0.064,0.153l0.389,0.931l2.444,5.841l1.483,3.544l1.869,4.467l0.867,2.071   c0.001,0,0.003-0.001,0.004-0.001L75,52.901l3.172,7.579c0.409,0.978-0.052,2.102-1.028,2.51c-0.243,0.101-0.493,0.15-0.74,0.15   c-0.75,0-1.463-0.443-1.77-1.178l-1.488-3.556c-0.004-0.009-0.011-0.015-0.015-0.024l-1.676-4.005l-1.38-3.297l-1.872-4.473   l-1.487-3.552L65.324,39.726z M76.407,69.651c-4.639,0-8.413-3.774-8.413-8.413c0-1.81,0.59-3.529,1.67-4.97l1.269,3.033   l0.105,0.25l0.012,0.017l1.387,3.314c0.67,1.604,2.228,2.641,3.968,2.641c0.569,0,1.126-0.112,1.657-0.333   c1.062-0.444,1.886-1.274,2.322-2.337c0.436-1.063,0.431-2.232-0.012-3.292l-2.78-6.643c4.08,0.578,7.231,4.083,7.231,8.32   C84.821,65.877,81.046,69.651,76.407,69.651z"/><path d="M44.415,58.695l-0.008-0.019l-0.139-0.333l-0.233-0.556l-0.168-0.403l-0.214-0.512l-1.817-4.349l-0.385-0.92l-0.385-0.92   l-0.598,0.478l-0.181,0.145l-0.779,0.622l-0.515,0.411l-3.776,3.017l-4.938,3.946H36.6h0.889c0.082-0.01,0.163-0.024,0.248-0.024   h6.921l-0.239-0.572L44.415,58.695z"/><g><polygon points="60.032,35.528 60.03,35.531 57.77,37.337 45.741,46.947 44.962,47.57 44.183,48.192 44.568,49.113 44.952,50.033     45.704,51.832 46.535,53.819 46.907,54.71 46.989,54.905 47.36,55.793 47.442,55.99 47.606,56.382 47.813,56.878 48.01,56.564     48.436,55.881 49.059,54.885 61.358,35.217 61.981,34.221 61.902,34.033   "/></g></g><text x="0" y="115" fill="#000000" font-size="5px" font-weight="bold" font-family="'Helvetica Neue', Helvetica, Arial-Unicode, Arial, Sans-serif">Created by Nathan Twomey</text><text x="0" y="120" fill="#000000" font-size="5px" font-weight="bold" font-family="'Helvetica Neue', Helvetica, Arial-Unicode, Arial, Sans-serif">from the Noun Project</text></svg>