<svg xmlns="http://www.w3.org/2000/svg" xmlns:xlink="http://www.w3.org/1999/xlink" version="1.1" x="0px" y="0px" viewBox="0 0 100 125" enable-background="new 0 0 100 100" xml:space="preserve"><g><path d="M32.9,82c0,0,0-7.2-8.9-13.5c0,0-0.1,2.7,1.7,7.8c-0.3-0.2-1.6-0.7-7.8-1.1C17.9,75.3,21.6,82.8,32.9,82z"/><path d="M62.9,83.9c3-4.6,3.5-7.3,3.5-7.3C58.3,80,55.7,85,54.9,87c-1.2,0.5-3.3,1.1-5.5,1.1c-1.8,0-3.3-0.4-4.4-0.8   c-0.6-1.7-3.1-7.1-11.6-10.6c0,0,0.5,2.7,3.5,7.3c-0.3-0.2-1.7-0.3-7.8,0.7c0,0,5,6.1,15.1,3.5c1.1,0.8,2.9,1.7,5.6,1.7   c2.8,0,4.6-0.9,5.7-1.7c10.3,2.8,15.4-3.4,15.4-3.4C64.6,83.6,63.2,83.8,62.9,83.9z"/><path d="M18.9,60.2c0,0-0.9,2.1-1,6.6c-0.1-0.2-1-1-5.8-3.1c0,0,0.7,7,9.7,9.7C21.8,73.4,24,67.8,18.9,60.2z"/><path d="M15.1,63.4c0,0,3.7-3.9,2.1-12c0,0-1.5,1.4-3.1,5.2c0-0.2-0.5-1.2-3.7-4.6C10.4,52,8.5,58,15.1,63.4z"/><path d="M18.3,42.8c0,0-1.6,0.8-4.1,3.6c0.1-0.2-0.1-1.1-1.9-5c0,0-3.3,4.6,0.8,11.1C13.1,52.5,17.4,50.2,18.3,42.8z"/><path d="M14.8,42.3c4.7-4.2,2-8.4,2-8.4C11.7,40.1,14.8,42.3,14.8,42.3z"/><path d="M76,68.5C67.1,74.8,67.1,82,67.1,82c11.3,0.8,15-6.7,15-6.7c-6.2,0.4-7.5,0.9-7.8,1.1C76.2,71.2,76,68.5,76,68.5z"/><path d="M82.1,66.8c-0.1-4.6-1-6.6-1-6.6c-5.1,7.6-3,13.2-3,13.2c9-2.7,9.7-9.7,9.7-9.7C83.1,65.9,82.2,66.6,82.1,66.8z"/><path d="M82.8,51.4c-1.6,8.1,2.1,12,2.1,12C91.5,58,89.6,52,89.6,52c-3.2,3.5-3.7,4.4-3.7,4.6C84.2,52.8,82.8,51.4,82.8,51.4z"/><path d="M86.9,52.5c4.1-6.5,0.8-11.1,0.8-11.1c-1.8,3.9-1.9,4.8-1.9,5c-2.5-2.8-4.1-3.6-4.1-3.6C82.6,50.2,86.9,52.5,86.9,52.5z"/><path d="M85.2,42.3c0,0,3.2-2.2-2-8.4C83.1,33.9,80.4,38.1,85.2,42.3z"/><path d="M36.5,44.1c-5.4,6.3-2.3,11.3-2.3,11.3c-1.8,2.7-0.4,9.5-0.4,9.5c-1.1,5.4,4.2,11.6,11.6,11.7c7.4,0.2,11.1-2.3,12.8-3.8   c1.7-1.6,2.1-5.9-0.5-4.8c-2.9,1.3-9.7,1.1-13.5,0.5c-0.5-0.1-0.9-0.5-0.8-1l0,0c0.1-0.5,0.6-0.8,1.1-0.6c1,0.3,3.1,0.8,6.8,0.7   c5.9-0.1,6.8-0.2,9.2-3.7c2.4-3.5-1.5-3.3-1.5-3.3c-3.4,0.7-11-0.3-15.2-1.8c-0.5-0.2-0.8-0.6-0.7-1.2c0.1-0.6,0.8-0.9,1.3-0.7   c6.3,2.7,14.9,2,14.9,2C64.7,55.5,60,53,60,53l-15.1-4.5c-0.6-0.2-0.9-0.8-0.7-1.4c0.2-0.6,0.8-0.9,1.4-0.7   c3.1,1.1,12.3,4.4,14.4,3.8c2.5-0.7,2.3-4.8-2.2-10s-15-4.2-18.3-2.9C36.2,38.6,36.5,44.1,36.5,44.1z"/><path d="M50.3,35.3c3.1,0.4,6.5,1.5,8.8,4.1c3.1,3.6,4.6,7.2,3.9,9.6c-0.3,1.1-1.1,1.9-2.2,2.2c-0.2,0-0.3,0.1-0.5,0.1   c-0.3,0-0.6,0-1,0l1.6,0.5l0.1,0L61,52c0.2,0.1,2.4,1.4,2.4,3.5c0,1.4-0.9,2.8-2.7,4c0.7,0.2,1.4,0.6,1.8,1.3   c0.5,1,0.3,2.2-0.7,3.7c-0.7,1-1.3,1.8-2,2.4c0.4,0.2,0.8,0.6,1,1.1c0.3,0.6,0.3,1.4,0.2,2.2c0,0,0.1,1.6-1.6,3.2l1.2-0.5   c1.6-0.6,3-1.6,4.1-2.9c3.9-4.7,1.5-10.4,1.5-10.4c4-12.1-1.4-19.9-4.3-24.2c-2.9-4.3-0.8-22.7-7.8-22c-7,0.7-6,7.7-3.7,15.1   C51.4,31.5,51.1,33.8,50.3,35.3z"/><path d="M50,5C25.2,5,5,25.2,5,50s20.2,45,45,45s45-20.2,45-45S74.8,5,50,5z M50,92.7C26.4,92.7,7.3,73.6,7.3,50S26.4,7.3,50,7.3   S92.7,26.4,92.7,50S73.6,92.7,50,92.7z"/><polygon points="30.9,35.9 31.8,32.7 35,31.8 31.8,31 30.9,27.7 30,31 26.8,31.8 30,32.7  "/><polygon points="71.2,33.4 72,30.2 75.2,29.4 72,28.5 71.2,25.3 70.3,28.5 67.1,29.4 70.3,30.2  "/><polygon points="36.2,26.9 37.4,22.2 42,21 37.4,19.7 36.2,15.1 34.9,19.7 30.3,21 34.9,22.2  "/></g><text x="0" y="115" fill="#000000" font-size="5px" font-weight="bold" font-family="'Helvetica Neue', Helvetica, Arial-Unicode, Arial, Sans-serif">Created by parkjisun</text><text x="0" y="120" fill="#000000" font-size="5px" font-weight="bold" font-family="'Helvetica Neue', Helvetica, Arial-Unicode, Arial, Sans-serif">from the Noun Project</text></svg>