<svg xmlns="http://www.w3.org/2000/svg" xmlns:xlink="http://www.w3.org/1999/xlink" version="1.1" x="0px" y="0px" viewBox="0 0 512 640" enable-background="new 0 0 512 512" xml:space="preserve"><path d="M241.939,0.002c-60.718,3.367-120.5,28.242-166.904,74.641c-100.047,100.053-100.047,262.263,0,362.316  c50.031,50.023,115.592,75.039,181.17,75.039c65.561,0,131.139-25.016,181.155-75.039c46.39-46.398,71.28-106.171,74.64-166.904  L241.939,0.002z M184.331,341.397h-50.734l53.781-89.647l24.687,41.124L184.331,341.397z M208.909,341.397l85.218-149.116  l85.218,149.116H208.909z M457.406,245.649c-16.405-2.836-32.468-7.43-48.046-13.743c-29.109-11.812-55.25-29.164-77.672-51.585  c-24.062-24.054-42.217-52.265-53.998-83.851c-5.095-13.687-8.876-27.671-11.344-41.882L457.406,245.649z M471.282,350.304  c-11.719,26.68-28.22,50.757-49.016,71.562c-22.423,22.421-48.562,39.78-77.671,51.586c-28.157,11.413-57.875,17.194-88.39,17.194  c-30.516,0-60.25-5.781-88.39-17.194c-29.125-11.806-55.25-29.165-77.672-51.586c-22.421-22.43-39.796-48.562-51.593-77.68  c-11.421-28.141-17.203-57.874-17.203-88.382c0-30.516,5.781-60.249,17.203-88.39c11.797-29.117,29.172-55.25,51.593-77.679  c20.797-20.804,44.875-37.288,71.546-48.999c22.938-10.071,47.125-16.344,72.094-18.711l8.28,8.281  c2.86,45.898,18.016,91.179,45.469,130.476L224.19,271.625l-36.812-61.375l-91.5,152.499h76.249h106.749h137.25l-90.937-159.131  c44.593,40.687,100.062,62.789,156.498,66.311l8.297,8.298C487.626,303.179,481.344,327.382,471.282,350.304z"/><text x="0" y="527" fill="#000000" font-size="5px" font-weight="bold" font-family="'Helvetica Neue', Helvetica, Arial-Unicode, Arial, Sans-serif">Created by lastspark</text><text x="0" y="532" fill="#000000" font-size="5px" font-weight="bold" font-family="'Helvetica Neue', Helvetica, Arial-Unicode, Arial, Sans-serif">from the Noun Project</text></svg>