<svg xmlns="http://www.w3.org/2000/svg" xmlns:xlink="http://www.w3.org/1999/xlink" version="1.1" x="0px" y="0px" viewBox="0 0 50.4 63" enable-background="new 0 0 50.4 50.4" xml:space="preserve"><g><path d="M7.788,22.343c-0.213-0.099-0.476-0.006-0.577,0.213c-0.334,0.72-0.502,1.493-0.502,2.297c0,0.74,0.144,1.458,0.43,2.134   c0.07,0.166,0.232,0.265,0.401,0.265c0.057,0,0.113-0.01,0.169-0.034c0.222-0.093,0.325-0.349,0.231-0.57   c-0.24-0.566-0.362-1.171-0.362-1.794c0-0.676,0.142-1.327,0.422-1.932C8.102,22.703,8.007,22.443,7.788,22.343z"/><path d="M30.185,40.639c-0.104,0-0.21-0.024-0.308-0.081l-6.694-3.791c-0.303-0.172-0.409-0.556-0.238-0.859   c0.173-0.301,0.555-0.407,0.858-0.237l6.693,3.792c0.303,0.171,0.409,0.556,0.237,0.858C30.618,40.524,30.404,40.639,30.185,40.639   L30.185,40.639z"/><path d="M46.388,11.626h-5.543V9.292h-3.501v2.333h-5.126V7.303c0-2.017-1.64-3.656-3.657-3.656h-7.109   c-2.018,0-3.658,1.639-3.658,3.656v4.323h-5.281V9.292H9.012v2.333h-5.09C1.756,11.626,0,13.382,0,15.547v27.945   c0,2.165,1.756,3.921,3.921,3.921h42.466c2.165,0,3.921-1.756,3.921-3.921V15.547C50.309,13.382,48.553,11.626,46.388,11.626z    M20.672,7.303c0-0.429,0.349-0.778,0.78-0.778h7.109c0.431,0,0.78,0.349,0.78,0.778v4.323h-8.669V7.303z M12.188,31.53   c-3.688,0-6.678-2.99-6.678-6.678s2.99-6.679,6.678-6.679c3.688,0,6.678,2.991,6.678,6.679S15.876,31.53,12.188,31.53z    M32.662,43.963l-13.979-7.849l14.338-8.19L32.662,43.963z M37.737,26.859l-9.392-3.889c0,0-0.927-0.384-1.753-0.728   c-0.55-0.227-1.675-1.256-1.382-1.912c0.213-0.591,1.64-0.582,2.195-0.351c1.837,0.738,4.307,1.786,4.307,1.786l7.547-2.791   l0.68,0.908l-3.495,3.858c0,0,5.444,2.25,6.082,2.512C43.08,26.482,39.437,27.246,37.737,26.859z M43.363,25.824l-2.354-0.985   l3.559-1.474l0.524,0.598L43.363,25.824z"/><path d="M8.692,28.543c0.917,0.904,2.174,1.464,3.562,1.464c2.803,0,5.078-2.274,5.078-5.077c0-0.029-0.005-0.057-0.005-0.085   L8.692,28.543z"/><polygon points="14.875,24.706 14.391,20.128 9.285,27.176  "/><polygon points="24.618,34.901 31.165,31.184 30.747,38.263 28.723,35.229  "/><polygon points="12.099,21.767 10.9,20.625 10.192,21.113 9.974,24.924  "/></g><text x="0" y="65.4" fill="#000000" font-size="5px" font-weight="bold" font-family="'Helvetica Neue', Helvetica, Arial-Unicode, Arial, Sans-serif">Created by Luis Prado</text><text x="0" y="70.4" fill="#000000" font-size="5px" font-weight="bold" font-family="'Helvetica Neue', Helvetica, Arial-Unicode, Arial, Sans-serif">from the Noun Project</text></svg>